:FULLY-SPECIFIED
:FORCE-ALL-JOINTS-BE-3DOF
:DEGREES
340
root 9.54536 16.5357 11.6904 6.76976 9.06915 1.60899
lfemur 16.5019 5.8454 -17.6893
ltibia 12.5342 0 0
lfoot -0.382901 -1.12963 0
ltoes -12.5487 0 0
rfemur -37.9376 2.47805 19.3463
rtibia 38.4137 0 0
rfoot -7.96745 1.86651 0
rtoes -18.5568 0 0
lowerback -7.49608 -3.8514 -4.0752
upperback -1.36052 -4.85083 2.37774
thorax 3.38545 -2.47666 4.18092
lowerneck -18.9227 -5.24569 -13.1228
upperneck 20.7729 -6.77577 13.4521
head 10.7405 -2.62715 6.07594
lclavicle 2.6025e-14 -2.65652e-14 0
lhumerus -31.4394 -34.3584 102.146
lradius 37.481 0 0
lwrist 9.42297 0 0
lhand -8.09901 -24.3535 0
lfingers 7.12502 0 0
lthumb 17.8124 4.83448 0
rclavicle 2.6025e-14 -2.65652e-14 0
rhumerus -46.9104 8.59437 -83.0401
rradius 32.344 0 0
rwrist -16.2295 0 0
rhand -28.7558 -25.0425 0
rfingers 7.12502 0 0
rthumb -2.11585 -55.0089 0
341
root 9.53775 16.5533 11.8289 6.7498 8.98504 1.47998
lfemur 14.9521 5.86063 -17.6781
ltibia 14.2342 0 0
lfoot -0.834171 -0.719572 0
ltoes -12.1217 0 0
rfemur -37.3306 2.6128 19.655
rtibia 38.2504 0 0
rfoot -8.37987 1.90807 0
rtoes -18.519 0 0
lowerback -7.42425 -3.74449 -3.95713
upperback -1.34893 -4.71729 2.38374
thorax 3.33831 -2.40847 4.1356
lowerneck -18.9592 -5.28539 -13.1061
upperneck 20.7958 -6.83004 13.4319
head 10.7628 -2.65128 6.05696
lclavicle 2.48643e-14 -2.72727e-14 0
lhumerus -31.9577 -33.9397 102.069
lradius 37.2395 0 0
lwrist 9.57491 0 0
lhand -8.31629 -24.2792 0
lfingers 7.12502 0 0
lthumb 17.6031 4.92504 0
rclavicle 2.48643e-14 -2.72727e-14 0
rhumerus -46.5061 8.92198 -83.0739
rradius 32.7246 0 0
rwrist -16.4408 0 0
rhand -28.8317 -25.0311 0
rfingers 7.12502 0 0
rthumb -2.18916 -54.9965 0
342
root 9.53013 16.571 11.9674 6.72825 8.89229 1.34759
lfemur 13.3358 5.87568 -17.6741
ltibia 15.9948 0 0
lfoot -1.31256 -0.292135 0
ltoes -11.676 0 0
rfemur -36.7006 2.75004 19.972
rtibia 38.0864 0 0
rfoot -8.81397 1.94168 0
rtoes -18.4836 0 0
lowerback -7.34868 -3.63358 -3.83523
upperback -1.33614 -4.57876 2.38981
thorax 3.28964 -2.33776 4.08884
lowerneck -18.9988 -5.32541 -13.0877
upperneck 20.8208 -6.88454 13.4095
head 10.7864 -2.67553 6.03691
lclavicle 2.36691e-14 -2.79789e-14 0
lhumerus -32.4809 -33.496 101.98
lradius 36.9824 0 0
lwrist 9.72747 0 0
lhand -8.54578 -24.2026 0
lfingers 7.12502 0 0
lthumb 17.3821 5.01885 0
rclavicle 2.36691e-14 -2.79789e-14 0
rhumerus -46.0884 9.25955 -83.1087
rradius 33.1232 0 0
rwrist -16.6634 0 0
rhand -28.9107 -25.017 0
rfingers 7.12502 0 0
rthumb -2.26543 -54.9813 0
343
root 9.52251 16.5886 12.1059 6.7053 8.79138 1.21204
lfemur 11.6596 5.89041 -17.6767
ltibia 17.8085 0 0
lfoot -1.81537 0.150891 0
ltoes -11.2139 0 0
rfemur -36.0489 2.88943 20.2963
rtibia 37.921 0 0
rfoot -9.26723 1.96799 0
rtoes -18.4502 0 0
lowerback -7.26985 -3.51896 -3.70979
upperback -1.32222 -4.43564 2.39594
thorax 3.23966 -2.26472 4.04077
lowerneck -19.0411 -5.36566 -13.0678
upperneck 20.8478 -6.93917 13.3852
head 10.8112 -2.69985 6.01593
lclavicle 2.24436e-14 -2.86824e-14 0
lhumerus -33.0083 -33.0294 101.878
lradius 36.7108 0 0
lwrist 9.8802 0 0
lhand -8.78609 -24.1237 0
lfingers 7.12502 0 0
lthumb 17.1507 5.11559 0
rclavicle 2.24436e-14 -2.86824e-14 0
rhumerus -45.6586 9.60584 -83.1446
rradius 33.538 0 0
rwrist -16.896 0 0
rhand -28.9924 -25.0002 0
rfingers 7.12502 0 0
rthumb -2.34432 -54.9635 0
344
root 9.5149 16.6062 12.2444 6.68114 8.6828 1.07358
lfemur 9.92955 5.90469 -17.6852
ltibia 19.6675 0 0
lfoot -2.33991 0.607721 0
ltoes -10.7377 0 0
rfemur -35.3768 3.03059 20.6271
rtibia 37.7535 0 0
rfoot -9.73712 1.98763 0
rtoes -18.4188 0 0
lowerback -7.1882 -3.40093 -3.58111
upperback -1.30729 -4.2883 2.40217
thorax 3.18862 -2.18955 3.99154
lowerneck -19.086 -5.40608 -13.0467
upperneck 20.8765 -6.99385 13.3592
head 10.837 -2.72421 5.9941
lclavicle 2.11919e-14 -2.9382e-14 0
lhumerus -33.5391 -32.5419 101.765
lradius 36.4263 0 0
lwrist 10.0326 0 0
lhand -9.03582 -24.043 0
lfingers 7.12502 0 0
lthumb 16.9101 5.21493 0
rclavicle 2.11919e-14 -2.9382e-14 0
rhumerus -45.218 9.95958 -83.1815
rradius 33.9669 0 0
rwrist -17.1374 0 0
rhand -29.0764 -24.981 0
rfingers 7.12502 0 0
rthumb -2.42547 -54.9431 0
345
root 9.50728 16.6239 12.3829 6.65594 8.56704 0.932437
lfemur 8.15207 5.91836 -17.699
ltibia 21.5644 0 0
lfoot -2.88347 1.07657 0
ltoes -10.2497 0 0
rfemur -34.6853 3.17315 20.9636
rtibia 37.583 0 0
rfoot -10.2211 2.00126 0
rtoes -18.3892 0 0
lowerback -7.1042 -3.27978 -3.44949
upperback -1.29142 -4.13712 2.40852
thorax 3.13674 -2.11244 3.94129
lowerneck -19.1331 -5.44657 -13.0243
upperneck 20.9068 -7.04848 13.3316
head 10.8638 -2.74856 5.97155
lclavicle 1.99181e-14 -3.00761e-14 0
lhumerus -34.0724 -32.0352 101.642
lradius 36.1299 0 0
lwrist 10.1843 0 0
lhand -9.29359 -23.9605 0
lfingers 7.12502 0 0
lthumb 16.6619 5.31654 0
rclavicle 1.99181e-14 -3.00761e-14 0
rhumerus -44.7681 10.3195 -83.2193
rradius 34.4082 0 0
rwrist -17.3864 0 0
rhand -29.1624 -24.9595 0
rfingers 7.12502 0 0
rthumb -2.50853 -54.9206 0
346
root 9.49966 16.6415 12.5214 6.62989 8.4446 0.788851
lfemur 6.33342 5.93129 -17.7173
ltibia 23.4916 0 0
lfoot -3.44335 1.55565 0
ltoes -9.75219 0 0
rfemur -33.9758 3.31675 21.3048
rtibia 37.409 0 0
rfoot -10.7167 2.0095 0
rtoes -18.3611 0 0
lowerback -7.01832 -3.15582 -3.3152
upperback -1.2747 -3.98247 2.415
thorax 3.08427 -2.03357 3.89015
lowerneck -19.182 -5.48707 -13.001
upperneck 20.9385 -7.10297 13.3026
head 10.8913 -2.77287 5.94837
lclavicle 1.86265e-14 -3.07636e-14 0
lhumerus -34.6077 -31.5115 101.509
lradius 35.8232 0 0
lwrist 10.3348 0 0
lhand -9.55802 -23.8766 0
lfingers 7.12502 0 0
lthumb 16.4072 5.42008 0
rclavicle 1.86265e-14 -3.07636e-14 0
rhumerus -44.3101 10.6844 -83.2581
rradius 34.8597 0 0
rwrist -17.6417 0 0
rhand -29.25 -24.9361 0
rfingers 7.12502 0 0
rthumb -2.59314 -54.8959 0
